<mxfile host="app.diagrams.net" modified="2023-02-04T19:44:55.803Z" agent="5.0 (Windows NT 10.0; Win64; x64) AppleWebKit/537.36 (KHTML, like Gecko) Chrome/109.0.0.0 Safari/537.36" etag="IKNwCMq9OWls2WqFU6yd" version="20.8.16" type="github">
  <diagram id="_KsFbbM1c4Vf_MlxP51w" name="Page-1">
    <mxGraphModel dx="880" dy="427" grid="1" gridSize="10" guides="1" tooltips="1" connect="1" arrows="1" fold="1" page="1" pageScale="1" pageWidth="850" pageHeight="1100" math="0" shadow="0">
      <root>
        <mxCell id="0" />
        <mxCell id="1" parent="0" />
        <mxCell id="yMU-ZAaQUFapcs6r5aY3-1" value="Client&#39;s Side" style="fontStyle=0;verticalAlign=top;align=center;spacingTop=-2;fillColor=none;rounded=0;whiteSpace=wrap;html=1;strokeColor=#00882B;strokeWidth=2;dashed=1;container=1;collapsible=0;expand=0;recursiveResize=0;" parent="1" vertex="1">
          <mxGeometry x="109" y="40" width="180" height="500" as="geometry" />
        </mxCell>
        <mxCell id="yMU-ZAaQUFapcs6r5aY3-2" value="Users" style="outlineConnect=0;fontColor=#232F3E;gradientColor=none;strokeColor=#232F3E;fillColor=#ffffff;dashed=0;verticalLabelPosition=bottom;verticalAlign=top;align=center;html=1;fontSize=12;fontStyle=0;aspect=fixed;shape=mxgraph.aws4.resourceIcon;resIcon=mxgraph.aws4.users;" parent="yMU-ZAaQUFapcs6r5aY3-1" vertex="1">
          <mxGeometry x="47" y="40" width="60" height="60" as="geometry" />
        </mxCell>
        <mxCell id="yMU-ZAaQUFapcs6r5aY3-39" style="edgeStyle=orthogonalEdgeStyle;rounded=0;orthogonalLoop=1;jettySize=auto;html=1;exitX=0.25;exitY=1;exitDx=0;exitDy=0;" parent="yMU-ZAaQUFapcs6r5aY3-1" source="yMU-ZAaQUFapcs6r5aY3-34" target="yMU-ZAaQUFapcs6r5aY3-37" edge="1">
          <mxGeometry relative="1" as="geometry" />
        </mxCell>
        <mxCell id="yMU-ZAaQUFapcs6r5aY3-34" value="Client System" style="image;html=1;image=img/lib/clip_art/computers/Secure_System_128x128.png;dashed=0;fillColor=#D9A741;" parent="yMU-ZAaQUFapcs6r5aY3-1" vertex="1">
          <mxGeometry x="62" y="180" width="80" height="80" as="geometry" />
        </mxCell>
        <mxCell id="yMU-ZAaQUFapcs6r5aY3-37" value="SFTP/Local Folders" style="outlineConnect=0;fontColor=#232F3E;gradientColor=none;fillColor=#116D5B;strokeColor=none;dashed=0;verticalLabelPosition=bottom;verticalAlign=top;align=center;html=1;fontSize=12;fontStyle=0;aspect=fixed;shape=mxgraph.aws4.transfer_for_sftp_resource;" parent="yMU-ZAaQUFapcs6r5aY3-1" vertex="1">
          <mxGeometry x="44" y="349" width="76" height="78" as="geometry" />
        </mxCell>
        <mxCell id="yMU-ZAaQUFapcs6r5aY3-3" value="Server Side" style="fontStyle=0;verticalAlign=top;align=center;spacingTop=-2;fillColor=none;rounded=0;whiteSpace=wrap;html=1;strokeColor=#919191;strokeWidth=2;dashed=1;container=1;collapsible=0;expand=0;recursiveResize=0;" parent="1" vertex="1">
          <mxGeometry x="410" y="38" width="520" height="502" as="geometry" />
        </mxCell>
        <mxCell id="yMU-ZAaQUFapcs6r5aY3-29" style="edgeStyle=orthogonalEdgeStyle;rounded=0;orthogonalLoop=1;jettySize=auto;html=1;" parent="yMU-ZAaQUFapcs6r5aY3-3" source="yMU-ZAaQUFapcs6r5aY3-5" target="yMU-ZAaQUFapcs6r5aY3-6" edge="1">
          <mxGeometry relative="1" as="geometry" />
        </mxCell>
        <mxCell id="yMU-ZAaQUFapcs6r5aY3-5" value="Vue Js Portal" style="pointerEvents=1;shadow=0;dashed=0;html=1;strokeColor=none;labelPosition=center;verticalLabelPosition=bottom;verticalAlign=top;align=center;fillColor=#505050;shape=mxgraph.mscae.intune.company_portal" parent="yMU-ZAaQUFapcs6r5aY3-3" vertex="1">
          <mxGeometry x="40" y="40" width="90" height="60" as="geometry" />
        </mxCell>
        <mxCell id="yMU-ZAaQUFapcs6r5aY3-6" value="Portal Api" style="outlineConnect=0;fontColor=#232F3E;gradientColor=none;strokeColor=#ffffff;fillColor=#232F3E;dashed=0;verticalLabelPosition=middle;verticalAlign=bottom;align=center;html=1;whiteSpace=wrap;fontSize=10;fontStyle=1;spacing=3;shape=mxgraph.aws4.productIcon;prIcon=mxgraph.aws4.api_gateway;" parent="yMU-ZAaQUFapcs6r5aY3-3" vertex="1">
          <mxGeometry x="45" y="154" width="80" height="110" as="geometry" />
        </mxCell>
        <mxCell id="yMU-ZAaQUFapcs6r5aY3-7" value="Enriched Api" style="points=[[0,0,0],[0.25,0,0],[0.5,0,0],[0.75,0,0],[1,0,0],[0,1,0],[0.25,1,0],[0.5,1,0],[0.75,1,0],[1,1,0],[0,0.25,0],[0,0.5,0],[0,0.75,0],[1,0.25,0],[1,0.5,0],[1,0.75,0]];outlineConnect=0;fontColor=#232F3E;gradientColor=#F34482;gradientDirection=north;fillColor=#BC1356;strokeColor=#ffffff;dashed=0;verticalLabelPosition=bottom;verticalAlign=top;align=center;html=1;fontSize=12;fontStyle=0;aspect=fixed;shape=mxgraph.aws4.resourceIcon;resIcon=mxgraph.aws4.api_gateway;" parent="yMU-ZAaQUFapcs6r5aY3-3" vertex="1">
          <mxGeometry x="45" y="282" width="78" height="78" as="geometry" />
        </mxCell>
        <mxCell id="yMU-ZAaQUFapcs6r5aY3-59" style="edgeStyle=orthogonalEdgeStyle;rounded=0;orthogonalLoop=1;jettySize=auto;html=1;entryX=1;entryY=0.5;entryDx=0;entryDy=0;entryPerimeter=0;startArrow=openThin;startFill=0;curved=1;dashed=1;fillColor=#d5e8d4;strokeColor=#82b366;exitX=0;exitY=0.5;exitDx=0;exitDy=0;exitPerimeter=0;" parent="yMU-ZAaQUFapcs6r5aY3-3" source="x4FNr3anz5mZ0z94SjzF-9" target="yMU-ZAaQUFapcs6r5aY3-7" edge="1">
          <mxGeometry relative="1" as="geometry" />
        </mxCell>
        <mxCell id="yMU-ZAaQUFapcs6r5aY3-62" style="edgeStyle=orthogonalEdgeStyle;curved=1;rounded=0;orthogonalLoop=1;jettySize=auto;html=1;startArrow=openThin;startFill=0;dashed=1;fillColor=#f8cecc;strokeColor=#b85450;entryX=0;entryY=1;entryDx=0;entryDy=0;entryPerimeter=0;" parent="yMU-ZAaQUFapcs6r5aY3-3" source="x4FNr3anz5mZ0z94SjzF-3" target="x4FNr3anz5mZ0z94SjzF-9" edge="1">
          <mxGeometry relative="1" as="geometry">
            <Array as="points">
              <mxPoint x="170" y="228" />
            </Array>
          </mxGeometry>
        </mxCell>
        <mxCell id="yMU-ZAaQUFapcs6r5aY3-9" value="Import Engine" style="outlineConnect=0;dashed=0;verticalLabelPosition=bottom;verticalAlign=top;align=center;html=1;shape=mxgraph.aws3.worker;fillColor=#D9A741;gradientColor=none;labelBackgroundColor=none;fontColor=#000000;" parent="yMU-ZAaQUFapcs6r5aY3-3" vertex="1">
          <mxGeometry x="190" y="403" width="60" height="63" as="geometry" />
        </mxCell>
        <mxCell id="yMU-ZAaQUFapcs6r5aY3-50" style="edgeStyle=orthogonalEdgeStyle;rounded=0;orthogonalLoop=1;jettySize=auto;html=1;exitX=1;exitY=0.5;exitDx=0;exitDy=0;exitPerimeter=0;startArrow=openThin;startFill=0;entryX=0;entryY=0.5;entryDx=0;entryDy=0;" parent="yMU-ZAaQUFapcs6r5aY3-3" source="yMU-ZAaQUFapcs6r5aY3-9" target="x4FNr3anz5mZ0z94SjzF-1" edge="1">
          <mxGeometry relative="1" as="geometry">
            <mxPoint x="440" y="230" as="targetPoint" />
            <Array as="points">
              <mxPoint x="270" y="435" />
              <mxPoint x="270" y="330" />
              <mxPoint x="360" y="330" />
              <mxPoint x="360" y="226" />
            </Array>
          </mxGeometry>
        </mxCell>
        <mxCell id="yMU-ZAaQUFapcs6r5aY3-11" value="Email Engine" style="outlineConnect=0;dashed=0;verticalLabelPosition=bottom;verticalAlign=top;align=center;html=1;shape=mxgraph.aws3.worker;fillColor=#D9A741;gradientColor=none;" parent="yMU-ZAaQUFapcs6r5aY3-3" vertex="1">
          <mxGeometry x="280" y="403" width="60" height="63" as="geometry" />
        </mxCell>
        <mxCell id="yMU-ZAaQUFapcs6r5aY3-54" style="edgeStyle=orthogonalEdgeStyle;rounded=0;orthogonalLoop=1;jettySize=auto;html=1;startArrow=openThin;startFill=0;entryX=0.75;entryY=0;entryDx=0;entryDy=0;exitX=1;exitY=0.25;exitDx=0;exitDy=0;exitPerimeter=0;" parent="yMU-ZAaQUFapcs6r5aY3-3" source="yMU-ZAaQUFapcs6r5aY3-7" target="x4FNr3anz5mZ0z94SjzF-1" edge="1">
          <mxGeometry relative="1" as="geometry">
            <mxPoint x="480" y="280" as="targetPoint" />
            <Array as="points">
              <mxPoint x="140" y="302" />
              <mxPoint x="140" y="102" />
              <mxPoint x="497" y="102" />
            </Array>
          </mxGeometry>
        </mxCell>
        <mxCell id="yMU-ZAaQUFapcs6r5aY3-61" style="edgeStyle=orthogonalEdgeStyle;curved=1;rounded=0;orthogonalLoop=1;jettySize=auto;html=1;entryX=1;entryY=0.5;entryDx=0;entryDy=0;entryPerimeter=0;startArrow=openThin;startFill=0;dashed=1;fillColor=#d5e8d4;strokeColor=#b85450;" parent="yMU-ZAaQUFapcs6r5aY3-3" source="x4FNr3anz5mZ0z94SjzF-9" target="yMU-ZAaQUFapcs6r5aY3-7" edge="1">
          <mxGeometry relative="1" as="geometry" />
        </mxCell>
        <mxCell id="x4FNr3anz5mZ0z94SjzF-1" value="Databases" style="aspect=fixed;perimeter=ellipsePerimeter;align=center;shadow=0;dashed=0;spacingTop=3;image;image=img/lib/active_directory/database.svg;labelBackgroundColor=none;fontColor=#000000;html=1;" vertex="1" parent="yMU-ZAaQUFapcs6r5aY3-3">
          <mxGeometry x="450" y="202.6" width="64.05" height="47.4" as="geometry" />
        </mxCell>
        <mxCell id="x4FNr3anz5mZ0z94SjzF-3" value="Pull Engine" style="outlineConnect=0;dashed=0;verticalLabelPosition=bottom;verticalAlign=top;align=center;html=1;shape=mxgraph.aws3.worker;fillColor=#D9A741;gradientColor=none;labelBackgroundColor=none;fontColor=#000000;" vertex="1" parent="yMU-ZAaQUFapcs6r5aY3-3">
          <mxGeometry x="110" y="403" width="60" height="63" as="geometry" />
        </mxCell>
        <mxCell id="x4FNr3anz5mZ0z94SjzF-5" style="edgeStyle=orthogonalEdgeStyle;rounded=0;orthogonalLoop=1;jettySize=auto;html=1;exitX=1;exitY=0.5;exitDx=0;exitDy=0;exitPerimeter=0;startArrow=openThin;startFill=0;entryX=0.25;entryY=1;entryDx=0;entryDy=0;" edge="1" parent="yMU-ZAaQUFapcs6r5aY3-3" source="yMU-ZAaQUFapcs6r5aY3-11" target="x4FNr3anz5mZ0z94SjzF-1">
          <mxGeometry relative="1" as="geometry">
            <mxPoint x="449.99999999999477" y="294.80000000000007" as="targetPoint" />
            <Array as="points">
              <mxPoint x="370" y="435" />
              <mxPoint x="370" y="350" />
              <mxPoint x="467" y="350" />
            </Array>
            <mxPoint x="340" y="250" as="sourcePoint" />
          </mxGeometry>
        </mxCell>
        <mxCell id="x4FNr3anz5mZ0z94SjzF-6" style="edgeStyle=orthogonalEdgeStyle;rounded=0;orthogonalLoop=1;jettySize=auto;html=1;startArrow=openThin;startFill=0;entryX=0.5;entryY=0;entryDx=0;entryDy=0;" edge="1" parent="yMU-ZAaQUFapcs6r5aY3-3" source="x4FNr3anz5mZ0z94SjzF-3" target="x4FNr3anz5mZ0z94SjzF-1">
          <mxGeometry relative="1" as="geometry">
            <mxPoint x="449.99999999999477" y="123.00000000000006" as="targetPoint" />
            <Array as="points">
              <mxPoint x="160" y="132" />
              <mxPoint x="482" y="132" />
            </Array>
            <mxPoint x="340" y="78.2" as="sourcePoint" />
          </mxGeometry>
        </mxCell>
        <mxCell id="x4FNr3anz5mZ0z94SjzF-9" value="RabbitMQ Cluster" style="sketch=0;points=[[0,0,0],[0.25,0,0],[0.5,0,0],[0.75,0,0],[1,0,0],[0,1,0],[0.25,1,0],[0.5,1,0],[0.75,1,0],[1,1,0],[0,0.25,0],[0,0.5,0],[0,0.75,0],[1,0.25,0],[1,0.5,0],[1,0.75,0]];outlineConnect=0;fontColor=#232F3E;gradientColor=#FF4F8B;gradientDirection=north;fillColor=#BC1356;strokeColor=#ffffff;dashed=0;verticalLabelPosition=bottom;verticalAlign=top;align=center;html=1;fontSize=12;fontStyle=0;aspect=fixed;shape=mxgraph.aws4.resourceIcon;resIcon=mxgraph.aws4.sqs;labelBackgroundColor=none;" vertex="1" parent="yMU-ZAaQUFapcs6r5aY3-3">
          <mxGeometry x="230" y="150" width="78" height="78" as="geometry" />
        </mxCell>
        <mxCell id="yMU-ZAaQUFapcs6r5aY3-60" style="edgeStyle=orthogonalEdgeStyle;curved=1;rounded=0;orthogonalLoop=1;jettySize=auto;html=1;startArrow=openThin;startFill=0;strokeColor=#82c566;dashed=1;labelBackgroundColor=none;labelBorderColor=default;entryX=0.5;entryY=0;entryDx=0;entryDy=0;entryPerimeter=0;" parent="yMU-ZAaQUFapcs6r5aY3-3" source="x4FNr3anz5mZ0z94SjzF-9" edge="1" target="yMU-ZAaQUFapcs6r5aY3-9">
          <mxGeometry relative="1" as="geometry">
            <mxPoint x="120" y="320" as="targetPoint" />
          </mxGeometry>
        </mxCell>
        <mxCell id="x4FNr3anz5mZ0z94SjzF-10" style="edgeStyle=orthogonalEdgeStyle;curved=1;rounded=0;orthogonalLoop=1;jettySize=auto;html=1;startArrow=openThin;startFill=0;strokeColor=#82c566;dashed=1;labelBackgroundColor=none;labelBorderColor=default;entryX=0.5;entryY=0;entryDx=0;entryDy=0;entryPerimeter=0;exitX=0.75;exitY=1;exitDx=0;exitDy=0;exitPerimeter=0;" edge="1" parent="yMU-ZAaQUFapcs6r5aY3-3" source="x4FNr3anz5mZ0z94SjzF-9" target="yMU-ZAaQUFapcs6r5aY3-11">
          <mxGeometry relative="1" as="geometry">
            <mxPoint x="230" y="520" as="targetPoint" />
            <mxPoint x="279" y="238" as="sourcePoint" />
          </mxGeometry>
        </mxCell>
        <mxCell id="yMU-ZAaQUFapcs6r5aY3-64" style="edgeStyle=orthogonalEdgeStyle;curved=1;rounded=0;orthogonalLoop=1;jettySize=auto;html=1;startArrow=openThin;startFill=0;dashed=1;fillColor=#f8cecc;strokeColor=#b85450;" parent="1" source="x4FNr3anz5mZ0z94SjzF-9" edge="1">
          <mxGeometry relative="1" as="geometry">
            <mxPoint x="520" y="240.0000000000001" as="targetPoint" />
            <Array as="points" />
          </mxGeometry>
        </mxCell>
        <mxCell id="yMU-ZAaQUFapcs6r5aY3-68" style="edgeStyle=orthogonalEdgeStyle;curved=1;rounded=0;orthogonalLoop=1;jettySize=auto;html=1;exitX=1;exitY=0.75;exitDx=0;exitDy=0;entryX=0;entryY=0.75;entryDx=0;entryDy=0;entryPerimeter=0;startArrow=openThin;startFill=0;" parent="1" source="yMU-ZAaQUFapcs6r5aY3-34" target="yMU-ZAaQUFapcs6r5aY3-7" edge="1">
          <mxGeometry relative="1" as="geometry" />
        </mxCell>
        <mxCell id="yMU-ZAaQUFapcs6r5aY3-69" style="edgeStyle=orthogonalEdgeStyle;curved=1;rounded=0;orthogonalLoop=1;jettySize=auto;html=1;exitX=0;exitY=0.5;exitDx=0;exitDy=0;startArrow=openThin;startFill=0;exitPerimeter=0;" parent="1" source="x4FNr3anz5mZ0z94SjzF-3" target="yMU-ZAaQUFapcs6r5aY3-37" edge="1">
          <mxGeometry relative="1" as="geometry">
            <Array as="points">
              <mxPoint x="360" y="473" />
              <mxPoint x="360" y="430" />
              <mxPoint x="250" y="430" />
              <mxPoint x="250" y="440" />
            </Array>
          </mxGeometry>
        </mxCell>
        <mxCell id="x4FNr3anz5mZ0z94SjzF-12" style="edgeStyle=orthogonalEdgeStyle;rounded=0;orthogonalLoop=1;jettySize=auto;html=1;startArrow=openThin;startFill=0;entryX=0;entryY=0.5;entryDx=0;entryDy=0;entryPerimeter=0;" edge="1" parent="1" source="yMU-ZAaQUFapcs6r5aY3-2" target="yMU-ZAaQUFapcs6r5aY3-5">
          <mxGeometry relative="1" as="geometry">
            <mxPoint x="217" y="100" as="sourcePoint" />
            <mxPoint x="427" y="87" as="targetPoint" />
            <Array as="points">
              <mxPoint x="320" y="108" />
              <mxPoint x="320" y="108" />
            </Array>
          </mxGeometry>
        </mxCell>
        <mxCell id="yMU-ZAaQUFapcs6r5aY3-16" value="Signing Service" style="outlineConnect=0;dashed=0;verticalLabelPosition=bottom;verticalAlign=top;align=center;html=1;shape=mxgraph.aws3.worker;fillColor=#D9A741;gradientColor=none;" parent="1" vertex="1">
          <mxGeometry x="310" y="180" width="60" height="63" as="geometry" />
        </mxCell>
        <mxCell id="x4FNr3anz5mZ0z94SjzF-11" style="edgeStyle=orthogonalEdgeStyle;curved=1;rounded=0;orthogonalLoop=1;jettySize=auto;html=1;startArrow=openThin;startFill=0;strokeColor=#82c566;dashed=1;labelBackgroundColor=none;labelBorderColor=default;exitX=0;exitY=0.5;exitDx=0;exitDy=0;exitPerimeter=0;" edge="1" parent="1" source="yMU-ZAaQUFapcs6r5aY3-7" target="yMU-ZAaQUFapcs6r5aY3-16">
          <mxGeometry relative="1" as="geometry">
            <mxPoint x="650" y="568" as="targetPoint" />
            <mxPoint x="699" y="286" as="sourcePoint" />
          </mxGeometry>
        </mxCell>
        <mxCell id="x4FNr3anz5mZ0z94SjzF-13" style="edgeStyle=orthogonalEdgeStyle;curved=1;rounded=0;orthogonalLoop=1;jettySize=auto;html=1;startArrow=openThin;startFill=0;dashed=1;fillColor=#d5e8d4;strokeColor=#82c566;exitX=0.25;exitY=1;exitDx=0;exitDy=0;exitPerimeter=0;" edge="1" parent="1" source="x4FNr3anz5mZ0z94SjzF-9">
          <mxGeometry relative="1" as="geometry">
            <mxPoint x="650" y="237" as="sourcePoint" />
            <mxPoint x="540" y="360" as="targetPoint" />
            <Array as="points">
              <mxPoint x="660" y="360" />
            </Array>
          </mxGeometry>
        </mxCell>
      </root>
    </mxGraphModel>
  </diagram>
</mxfile>
